<svg width="573" height="501" viewBox="0 0 573 501" fill="none" xmlns="http://www.w3.org/2000/svg">
    <path
        d="M112.953 493.805C64.8446 458.65 29.5572 409.786 12.1417 354.209C-5.27374 298.632 -3.92438 239.191 15.9966 184.395C35.9176 129.599 73.3889 82.2574 123.047 49.1466C172.704 16.0357 232.003 -1.14654 292.453 0.0593712C352.903 1.26528 411.407 20.7975 459.588 55.8601C507.77 90.9227 543.16 139.718 560.692 195.261C578.224 250.804 576.999 310.248 557.193 365.082C537.387 419.917 500.015 467.331 450.426 500.537L406.369 439.921C442.63 415.639 469.958 380.968 484.441 340.871C498.924 300.774 499.819 257.307 486.999 216.692C474.179 176.077 448.301 140.396 413.069 114.757C377.836 89.1177 335.057 74.835 290.853 73.9532C246.65 73.0714 203.288 85.6357 166.977 109.848C130.665 134.059 103.265 168.678 88.6979 208.746C74.1309 248.815 73.1442 292.281 85.8791 332.921C98.6139 373.56 124.417 409.291 159.596 434.998L112.953 493.805Z"
        fill="url(#paint0_linear_3685_20601)" />
    <defs>
        <linearGradient id="paint0_linear_3685_20601" x1="286.5" y1="0" x2="286.5" y2="449.167"
            gradientUnits="userSpaceOnUse">
            <stop stop-color="#E231A8" />
            <stop offset="0.159288" stop-color="#9F337E" />
            <stop offset="0.410772" stop-color="#882974" />
            <stop offset="0.658558" stop-color="#712C7C" />
            <stop offset="0.873059" stop-color="#4e0e5a" />
            <stop offset="1" stop-color="#2e0535" />
        </linearGradient>
    </defs>
</svg>