<svg width="121" height="120" viewBox="0 0 121 120" fill="none" xmlns="http://www.w3.org/2000/svg">
<g clip-path="url(#clip0_3240_26274)">
<path d="M17.3499 48.5364C21.1152 48.5364 24.1676 45.4344 24.1676 41.608C24.1676 37.7816 21.1152 34.6797 17.3499 34.6797C13.5846 34.6797 10.5322 37.7816 10.5322 41.608C10.5322 45.4344 13.5846 48.5364 17.3499 48.5364Z" fill="#FCFCFC"/>
<path d="M24.9635 51.3047H9.73985C4.36415 51.3104 0.0084629 55.7368 0.000957555 61.1998V80.6052C-0.0440745 82.5926 1.50484 84.241 3.46045 84.2865C5.41607 84.3323 7.03816 82.7582 7.08296 80.7708C7.08483 80.7156 7.08483 80.6603 7.08296 80.605V63.2021H9.20932V116.316C9.16428 118.303 10.7132 119.951 12.6688 119.997C14.6244 120.043 16.2465 118.469 16.2913 116.481C16.2932 116.426 16.2932 116.371 16.2913 116.315V86.8039H18.4139V116.316C18.3689 118.303 19.9178 119.952 21.8734 119.997C23.829 120.043 25.4511 118.469 25.4959 116.482C25.4978 116.426 25.4978 116.371 25.4959 116.316V63.1988H27.6223V80.6016C27.5773 82.589 29.1262 84.2374 31.0818 84.2829C33.0374 84.3287 34.6595 82.7546 34.7043 80.7673C34.7062 80.712 34.7062 80.6567 34.7043 80.6014V61.1998C34.6987 55.7368 30.3411 51.3104 24.9635 51.3047Z" fill="#FCFCFC"/>
<path d="M102.651 48.5364C106.416 48.5364 109.468 45.4344 109.468 41.608C109.468 37.7816 106.416 34.6797 102.651 34.6797C98.8854 34.6797 95.833 37.7816 95.833 41.608C95.833 45.4344 98.8854 48.5364 102.651 48.5364Z" fill="#FCFCFC"/>
<path d="M110.253 51.3047H95.0279C89.6522 51.3104 85.2947 55.7387 85.289 61.2017V80.6052C85.244 82.5926 86.7929 84.241 88.7485 84.2865C90.7042 84.3323 92.3262 82.7582 92.371 80.7708C92.3729 80.7156 92.3729 80.6603 92.371 80.605V63.2021H94.503V116.316C94.458 118.303 96.0069 119.951 97.9625 119.997C99.9181 120.043 101.54 118.469 101.585 116.481C101.587 116.426 101.587 116.371 101.585 116.315V86.8039H103.708V116.316C103.663 118.303 105.212 119.952 107.167 119.997C109.123 120.043 110.745 118.469 110.79 116.482C110.792 116.426 110.792 116.371 110.79 116.316V63.1988H112.916V80.6016C112.871 82.589 114.42 84.2374 116.375 84.2829C118.331 84.3287 119.953 82.7546 119.998 80.7673C120 80.712 120 80.6567 119.998 80.6014V61.1998C119.992 55.7349 115.631 51.3085 110.253 51.3047Z" fill="#FCFCFC"/>
<path d="M59.3128 13.8567C63.0781 13.8567 66.1305 10.7548 66.1305 6.92834C66.1305 3.10192 63.0781 0 59.3128 0C55.5475 0 52.4951 3.10192 52.4951 6.92834C52.4951 10.7548 55.5475 13.8567 59.3128 13.8567Z" fill="#FCFCFC"/>
<path d="M67.4534 17.2891H52.2281C46.8524 17.2948 42.4949 21.7231 42.4892 27.186V46.5896C42.4442 48.5769 43.9931 50.2253 45.9487 50.2709C47.9043 50.3166 49.5264 48.7426 49.5712 46.7552C49.5731 46.6999 49.5731 46.6446 49.5712 46.5893V29.1865H51.7032V82.3C51.6582 84.2874 53.2071 85.9358 55.1627 85.9813C57.1183 86.0271 58.7404 84.453 58.7852 82.4657C58.7871 82.4104 58.7871 82.3551 58.7852 82.2998V52.7883H60.9078V82.3005C60.8628 84.2878 62.4117 85.9363 64.3673 85.9818C66.3229 86.0276 67.945 84.4535 67.9898 82.4661C67.9917 82.4109 67.9917 82.3555 67.9898 82.3002V29.1832H70.1162V46.586C70.0712 48.5734 71.6201 50.2218 73.5757 50.2673C75.5313 50.3131 77.1534 48.739 77.1982 46.7517C77.2001 46.6964 77.2001 46.6411 77.1982 46.5858V27.1841C77.1923 21.7193 72.831 17.2929 67.4534 17.2891Z" fill="#FCFCFC"/>
</g>
<defs>
<clipPath id="clip0_3240_26274">
<rect width="120" height="120" fill="white" transform="translate(0.5)"/>
</clipPath>
</defs>
</svg>
