<svg width="120" height="120" viewBox="0 0 120 120" fill="none" xmlns="http://www.w3.org/2000/svg">
<g clip-path="url(#clip0_3240_26332)">
<path d="M70.3717 64.8359C67.1594 64.0275 64.5446 62.2393 64.5446 62.2393L62.5027 68.5592L62.1292 69.7595V69.735L61.8054 70.7393L60.7346 67.7509C63.449 64.0275 60.0125 64.1745 60.0125 64.1745C60.0125 64.1745 56.576 64.0275 59.2903 67.7509L58.2196 70.7638L57.8958 69.735L55.4803 62.2148C55.4803 62.2148 52.8656 64.0275 49.6533 64.8114C48.0596 65.2033 47.4619 66.5506 47.2876 67.7998C50.1762 71.6947 54.808 74.1197 59.9627 74.1197C61.1331 74.1197 62.3284 73.9972 63.4988 73.7278C67.259 72.8704 70.4962 70.7638 72.7125 67.7264C72.5382 66.5261 71.9405 65.2278 70.3717 64.8359Z" fill="#FCFCFC"/>
<path d="M60.0127 38.6755C60.6453 38.6755 61.1582 38.171 61.1582 37.5487C61.1582 36.9264 60.6453 36.4219 60.0127 36.4219C59.38 36.4219 58.8672 36.9264 58.8672 37.5487C58.8672 38.171 59.38 38.6755 60.0127 38.6755Z" fill="#FCFCFC"/>
<path d="M60.0127 41.9567C60.6453 41.9567 61.1582 41.4522 61.1582 40.8299C61.1582 40.2076 60.6453 39.7031 60.0127 39.7031C59.38 39.7031 58.8672 40.2076 58.8672 40.8299C58.8672 41.4522 59.38 41.9567 60.0127 41.9567Z" fill="#FCFCFC"/>
<path d="M60.0127 25.5466C60.6352 25.5466 61.1582 25.0322 61.1582 24.4198C61.1582 23.8074 60.6352 23.293 60.0127 23.293C59.3901 23.293 58.8672 23.8074 58.8672 24.4198C58.8672 25.0322 59.3901 25.5466 60.0127 25.5466Z" fill="#FCFCFC"/>
<path d="M60.0127 28.8278C60.6453 28.8278 61.1582 28.3233 61.1582 27.701C61.1582 27.0787 60.6453 26.5742 60.0127 26.5742C59.38 26.5742 58.8672 27.0787 58.8672 27.701C58.8672 28.3233 59.38 28.8278 60.0127 28.8278Z" fill="#FCFCFC"/>
<path d="M60.0127 32.1091C60.6453 32.1091 61.1582 31.6046 61.1582 30.9823C61.1582 30.36 60.6453 29.8555 60.0127 29.8555C59.38 29.8555 58.8672 30.36 58.8672 30.9823C58.8672 31.6046 59.38 32.1091 60.0127 32.1091Z" fill="#FCFCFC"/>
<path d="M60.0127 35.3903C60.1123 35.3903 60.2119 35.3658 60.2866 35.3413C60.7846 35.2188 61.1582 34.7779 61.1582 34.2635C61.1582 33.6511 60.6352 33.1367 60.0127 33.1367C59.3901 33.1367 58.8672 33.6511 58.8672 34.2635C58.8672 34.8759 59.3901 35.3903 60.0127 35.3903Z" fill="#FCFCFC"/>
<path d="M60.0127 92.9567C60.6453 92.9567 61.1582 92.4522 61.1582 91.8299C61.1582 91.2076 60.6453 90.7031 60.0127 90.7031C59.38 90.7031 58.8672 91.2076 58.8672 91.8299C58.8672 92.4522 59.38 92.9567 60.0127 92.9567Z" fill="#FCFCFC"/>
<path d="M60.0127 96.238C60.6453 96.238 61.1582 95.7335 61.1582 95.1112C61.1582 94.4889 60.6453 93.9844 60.0127 93.9844C59.38 93.9844 58.8672 94.4889 58.8672 95.1112C58.8672 95.7335 59.38 96.238 60.0127 96.238Z" fill="#FCFCFC"/>
<path d="M60.0127 79.8005C60.6352 79.8005 61.1582 79.2861 61.1582 78.6737C61.1582 78.0613 60.6352 77.5469 60.0127 77.5469C59.3901 77.5469 58.8672 78.0613 58.8672 78.6737C58.8672 79.3106 59.3652 79.8005 60.0127 79.8005Z" fill="#FCFCFC"/>
<path d="M60.0127 83.1091C60.6453 83.1091 61.1582 82.6046 61.1582 81.9823C61.1582 81.36 60.6453 80.8555 60.0127 80.8555C59.38 80.8555 58.8672 81.36 58.8672 81.9823C58.8672 82.6046 59.38 83.1091 60.0127 83.1091Z" fill="#FCFCFC"/>
<path d="M60.0127 86.3903C60.6453 86.3903 61.1582 85.8858 61.1582 85.2635C61.1582 84.6412 60.6453 84.1367 60.0127 84.1367C59.38 84.1367 58.8672 84.6412 58.8672 85.2635C58.8672 85.8858 59.38 86.3903 60.0127 86.3903Z" fill="#FCFCFC"/>
<path d="M59.7886 89.651C59.8633 89.6755 59.938 89.6755 60.0127 89.6755C60.0874 89.6755 60.1621 89.6755 60.2368 89.651C60.7597 89.553 61.1582 89.0876 61.1582 88.5487C61.1582 87.9363 60.6352 87.4219 60.0127 87.4219C59.3901 87.4219 58.8672 87.9363 58.8672 88.5487C58.8672 89.0876 59.2656 89.5285 59.7886 89.651Z" fill="#FCFCFC"/>
<path d="M86.0343 72.8217C85.4615 72.5278 84.7892 72.7482 84.4904 73.3116C84.1915 73.875 84.4157 74.5364 84.9884 74.8303C85.4864 75.0753 86.0592 74.9283 86.4078 74.5364C86.4576 74.4874 86.5074 74.4139 86.5323 74.3404C86.5572 74.2669 86.607 74.1935 86.607 74.12C86.7564 73.6301 86.5074 73.0912 86.0343 72.8217Z" fill="#FCFCFC"/>
<path d="M88.4751 76.445C89.1077 76.445 89.6206 75.9405 89.6206 75.3182C89.6206 74.6959 89.1077 74.1914 88.4751 74.1914C87.8424 74.1914 87.3296 74.6959 87.3296 75.3182C87.3296 75.9405 87.8424 76.445 88.4751 76.445Z" fill="#FCFCFC"/>
<path d="M91.4634 77.9411C92.096 77.9411 92.6089 77.4366 92.6089 76.8143C92.6089 76.192 92.096 75.6875 91.4634 75.6875C90.8307 75.6875 90.3179 76.192 90.3179 76.8143C90.3179 77.4366 90.8307 77.9411 91.4634 77.9411Z" fill="#FCFCFC"/>
<path d="M77.0946 68.365C76.5219 68.0955 75.8495 68.316 75.5507 68.8549C75.2768 69.4183 75.476 70.0797 76.0487 70.3736C76.6215 70.6676 77.2938 70.4471 77.5926 69.8837C77.8915 69.3203 77.6673 68.6589 77.0946 68.365Z" fill="#FCFCFC"/>
<path d="M79.56 71.988C80.1927 71.988 80.7055 71.4835 80.7055 70.8612C80.7055 70.2389 80.1927 69.7344 79.56 69.7344C78.9274 69.7344 78.4146 70.2389 78.4146 70.8612C78.4146 71.4835 78.9274 71.988 79.56 71.988Z" fill="#FCFCFC"/>
<path d="M82.5234 73.4841C83.1561 73.4841 83.6689 72.9796 83.6689 72.3573C83.6689 71.735 83.1561 71.2305 82.5234 71.2305C81.8908 71.2305 81.3779 71.735 81.3779 72.3573C81.3779 72.9796 81.8908 73.4841 82.5234 73.4841Z" fill="#FCFCFC"/>
<path d="M33.9894 72.822C33.4166 73.116 33.1925 73.7774 33.4913 74.3408C33.5162 74.4143 33.566 74.4632 33.6159 74.5367C33.9396 74.9532 34.5372 75.0756 35.0353 74.8307C35.608 74.5612 35.8321 73.8753 35.5333 73.3119C35.2345 72.773 34.5372 72.5526 33.9894 72.822Z" fill="#FCFCFC"/>
<path d="M31.5244 76.445C32.157 76.445 32.6699 75.9405 32.6699 75.3182C32.6699 74.6959 32.157 74.1914 31.5244 74.1914C30.8918 74.1914 30.3789 74.6959 30.3789 75.3182C30.3789 75.9405 30.8918 76.445 31.5244 76.445Z" fill="#FCFCFC"/>
<path d="M28.561 77.9411C29.1937 77.9411 29.7065 77.4366 29.7065 76.8143C29.7065 76.192 29.1937 75.6875 28.561 75.6875C27.9284 75.6875 27.4155 76.192 27.4155 76.8143C27.4155 77.4366 27.9284 77.9411 28.561 77.9411Z" fill="#FCFCFC"/>
<path d="M42.9044 68.365C42.3317 68.6589 42.1076 69.3203 42.4064 69.8837C42.6803 70.4471 43.3776 70.6676 43.9503 70.3736C44.523 70.1042 44.7472 69.4183 44.4483 68.8549C44.1495 68.316 43.4772 68.0955 42.9044 68.365Z" fill="#FCFCFC"/>
<path d="M40.4639 71.988C41.0965 71.988 41.6093 71.4835 41.6093 70.8612C41.6093 70.2389 41.0965 69.7344 40.4639 69.7344C39.8312 69.7344 39.3184 70.2389 39.3184 70.8612C39.3184 71.4835 39.8312 71.988 40.4639 71.988Z" fill="#FCFCFC"/>
<path d="M37.4761 73.4841C38.1087 73.4841 38.6215 72.9796 38.6215 72.3573C38.6215 71.735 38.1087 71.2305 37.4761 71.2305C36.8434 71.2305 36.3306 71.735 36.3306 72.3573C36.3306 72.9796 36.8434 73.4841 37.4761 73.4841Z" fill="#FCFCFC"/>
<path d="M35.0359 44.7018C34.5379 44.4568 33.9651 44.6038 33.6165 44.9957C33.5667 45.0447 33.5169 45.1182 33.492 45.1917C33.4671 45.2652 33.4173 45.3387 33.4173 45.4122C33.2679 45.9266 33.5169 46.4655 33.99 46.7104C34.5628 46.9799 35.2351 46.7594 35.5339 46.2205C35.8079 45.6571 35.5837 44.9957 35.0359 44.7018Z" fill="#FCFCFC"/>
<path d="M31.5488 45.3356C32.1814 45.3356 32.6943 44.8311 32.6943 44.2088C32.6943 43.5865 32.1814 43.082 31.5488 43.082C30.9162 43.082 30.4033 43.5865 30.4033 44.2088C30.4033 44.8311 30.9162 45.3356 31.5488 45.3356Z" fill="#FCFCFC"/>
<path d="M28.561 43.8669C29.1937 43.8669 29.7065 43.3624 29.7065 42.7401C29.7065 42.1178 29.1937 41.6133 28.561 41.6133C27.9284 41.6133 27.4155 42.1178 27.4155 42.7401C27.4155 43.3624 27.9284 43.8669 28.561 43.8669Z" fill="#FCFCFC"/>
<path d="M43.9505 49.1811C43.3778 48.8871 42.7055 49.1076 42.4066 49.671C42.1327 50.2344 42.3319 50.8958 42.9047 51.1897C43.4774 51.4592 44.1498 51.2387 44.4486 50.6998C44.7474 50.1609 44.5233 49.4505 43.9505 49.1811Z" fill="#FCFCFC"/>
<path d="M40.4639 49.82C41.0965 49.82 41.6093 49.3155 41.6093 48.6932C41.6093 48.0709 41.0965 47.5664 40.4639 47.5664C39.8312 47.5664 39.3184 48.0709 39.3184 48.6932C39.3184 49.3155 39.8312 49.82 40.4639 49.82Z" fill="#FCFCFC"/>
<path d="M37.4761 48.3239C38.1087 48.3239 38.6215 47.8194 38.6215 47.1971C38.6215 46.5748 38.1087 46.0703 37.4761 46.0703C36.8434 46.0703 36.3306 46.5748 36.3306 47.1971C36.3306 47.8194 36.8434 48.3239 37.4761 48.3239Z" fill="#FCFCFC"/>
<path d="M86.4078 45.017C86.0841 44.6005 85.4864 44.478 84.9884 44.723C84.4157 44.9925 84.1915 45.6783 84.4904 46.2417C84.7643 46.8051 85.4615 47.0256 86.0343 46.7316C86.607 46.4622 86.8312 45.7763 86.5323 45.2129C86.5074 45.1394 86.4576 45.0659 86.4078 45.017Z" fill="#FCFCFC"/>
<path d="M88.4751 45.3356C89.1077 45.3356 89.6206 44.8311 89.6206 44.2088C89.6206 43.5865 89.1077 43.082 88.4751 43.082C87.8424 43.082 87.3296 43.5865 87.3296 44.2088C87.3296 44.8311 87.8424 45.3356 88.4751 45.3356Z" fill="#FCFCFC"/>
<path d="M91.4634 43.8669C92.096 43.8669 92.6089 43.3624 92.6089 42.7401C92.6089 42.1178 92.096 41.6133 91.4634 41.6133C90.8307 41.6133 90.3179 42.1178 90.3179 42.7401C90.3179 43.3624 90.8307 43.8669 91.4634 43.8669Z" fill="#FCFCFC"/>
<path d="M76.0739 49.1811C75.5011 49.4505 75.277 50.1364 75.5758 50.6998C75.8497 51.2632 76.547 51.4837 77.1197 51.1897C77.6925 50.8958 77.9166 50.2344 77.6178 49.671C77.3189 49.1076 76.6466 48.8871 76.0739 49.1811Z" fill="#FCFCFC"/>
<path d="M79.56 49.82C80.1927 49.82 80.7055 49.3155 80.7055 48.6932C80.7055 48.0709 80.1927 47.5664 79.56 47.5664C78.9274 47.5664 78.4146 48.0709 78.4146 48.6932C78.4146 49.3155 78.9274 49.82 79.56 49.82Z" fill="#FCFCFC"/>
<path d="M82.5483 48.3239C83.181 48.3239 83.6938 47.8194 83.6938 47.1971C83.6938 46.5748 83.181 46.0703 82.5483 46.0703C81.9157 46.0703 81.4028 46.5748 81.4028 47.1971C81.4028 47.8194 81.9157 48.3239 82.5483 48.3239Z" fill="#FCFCFC"/>
<path d="M69.1013 17.0693C68.9519 16.8734 68.7526 16.7019 68.5534 16.5549C66.2126 14.7667 63.8719 13.6154 63.3489 13.3705C63.2991 13.346 63.2493 13.2725 63.2493 13.2235C63.2493 13.003 63.2493 12.4396 63.2493 11.8028C63.7474 11.1414 64.0462 10.4065 64.1458 9.74512C64.3699 9.72063 64.6936 9.40218 65.0174 8.25089C65.4656 6.68317 64.9925 6.46271 64.594 6.4872C64.6687 6.26674 64.7185 6.04628 64.7683 5.85032C65.4656 1.78404 63.4236 1.66156 63.4236 1.66156C63.4236 1.66156 63.075 1.02468 62.2034 0.534764C61.6058 0.191825 60.784 -0.0776267 59.6883 0.0203558C59.3397 0.0448514 58.9911 0.0938427 58.6923 0.216321C58.2938 0.338799 57.9203 0.534764 57.5966 0.77972C57.1981 1.02468 56.7997 1.34312 56.4511 1.71055C55.9032 2.24946 55.4301 2.95983 55.2309 3.81718C55.0566 4.47856 55.1064 5.13994 55.2309 5.87481C55.2807 6.09527 55.3305 6.29124 55.4052 6.5117C55.0068 6.46271 54.5087 6.70766 54.9819 8.27538C55.3056 9.42668 55.6293 9.74512 55.8534 9.76962C55.953 10.431 56.2768 11.1904 56.7499 11.8517V13.199C56.7499 13.2725 56.725 13.3215 56.6503 13.346C56.1523 13.5909 53.7866 14.7667 51.4458 16.5304C51.2466 16.6774 51.0723 16.8489 50.8979 17.0448C53.3632 19.078 56.5258 20.3027 59.9872 20.3027C63.4734 20.3272 66.636 19.1025 69.1013 17.0693Z" fill="#FCFCFC"/>
<path d="M68.5534 116.203C66.2126 114.415 63.8719 113.264 63.3489 113.019C63.2991 112.994 63.2493 112.921 63.2493 112.872C63.2493 112.651 63.2493 112.088 63.2493 111.451C63.7474 110.79 64.0462 110.055 64.1458 109.394C64.3699 109.369 64.6936 109.051 65.0174 107.899C65.4656 106.332 64.9925 106.111 64.594 106.136C64.6687 105.915 64.7185 105.695 64.7683 105.499C65.4656 101.432 63.4236 101.31 63.4236 101.31C63.4236 101.31 63.075 100.673 62.2034 100.183C61.6058 99.8403 60.784 99.5708 59.6883 99.6688C59.3397 99.6933 58.9911 99.7423 58.6923 99.8648C58.2938 99.9872 57.9203 100.183 57.5966 100.428C57.1981 100.673 56.7997 100.992 56.4511 101.359C55.9032 101.898 55.4301 102.608 55.2309 103.466C55.0566 104.127 55.1064 104.788 55.2309 105.523C55.2807 105.744 55.3305 105.94 55.4052 106.16C55.0068 106.111 54.5087 106.356 54.9819 107.924C55.3056 109.075 55.6293 109.394 55.8534 109.418C55.953 110.079 56.2768 110.839 56.7499 111.5V112.896C56.7499 112.97 56.725 113.019 56.6503 113.043C56.1523 113.288 53.7866 114.464 51.4458 116.228C51.2466 116.375 51.0723 116.546 50.8979 116.742C53.3632 118.775 56.5258 120 59.9872 120C63.4485 120 66.6111 118.775 69.0764 116.742C68.9519 116.522 68.7526 116.35 68.5534 116.203Z" fill="#FCFCFC"/>
<path d="M113.477 82.8635C111.136 81.0753 108.796 79.924 108.273 79.6791C108.223 79.6546 108.173 79.5811 108.173 79.5321C108.173 79.3116 108.173 78.7482 108.173 78.1114C108.671 77.45 108.97 76.7151 109.07 76.0537C109.294 76.0292 109.617 75.7108 109.941 74.5595C110.389 72.9918 109.916 72.7713 109.518 72.7958C109.593 72.5753 109.642 72.3549 109.692 72.1589C110.389 68.0926 108.347 67.9702 108.347 67.9702C108.347 67.9702 107.999 67.3333 107.127 66.8434C106.53 66.5004 105.708 66.231 104.612 66.3289C104.264 66.3534 103.915 66.4024 103.616 66.5249C103.218 66.6474 102.844 66.8434 102.52 67.0883C102.122 67.3333 101.724 67.6517 101.375 68.0192C100.827 68.5581 100.354 69.2684 100.155 70.1258C99.9804 70.7872 100.03 71.4485 100.155 72.1834C100.205 72.4039 100.254 72.5998 100.329 72.8203C99.9306 72.7713 99.4326 73.0163 99.9057 74.584C100.229 75.7353 100.553 76.0537 100.777 76.0782C100.877 76.7396 101.201 77.499 101.674 78.1603V79.5566C101.674 79.6301 101.649 79.6791 101.574 79.7036C101.076 79.9485 98.7104 81.1243 96.3696 82.888C96.1704 83.035 95.9961 83.2064 95.8218 83.4024C98.2871 85.4355 101.45 86.6603 104.911 86.6603C108.372 86.6603 111.535 85.4355 114 83.4024C113.851 83.1819 113.676 83.0105 113.477 82.8635Z" fill="#FCFCFC"/>
<path d="M114 44.7998C113.851 44.6038 113.652 44.4324 113.452 44.2854C111.112 42.4972 108.771 41.3459 108.248 41.1009C108.198 41.0764 108.148 41.003 108.148 40.954C108.148 40.7335 108.148 40.1701 108.148 39.5332C108.646 38.8718 108.945 38.137 109.045 37.4756C109.269 37.4511 109.593 37.1327 109.916 35.9814C110.365 34.4136 109.891 34.1932 109.493 34.2177C109.568 33.9972 109.617 33.7767 109.667 33.5808C110.365 29.5145 108.323 29.392 108.323 29.392C108.323 29.392 107.974 28.7551 107.102 28.2652C106.505 27.9223 105.683 27.6528 104.587 27.7508C104.239 27.7753 103.89 27.8243 103.591 27.9468C103.193 28.0693 102.819 28.2652 102.496 28.5102C102.097 28.7551 101.699 29.0736 101.35 29.441C100.802 29.9799 100.329 30.6903 100.13 31.5476C99.9555 32.209 100.005 32.8704 100.13 33.6053C100.18 33.8257 100.229 34.0217 100.304 34.2422C99.9057 34.1932 99.4077 34.4381 99.8808 36.0059C100.205 37.1571 100.528 37.4756 100.752 37.5001C100.852 38.1615 101.176 38.9208 101.649 39.5822V40.9785C101.649 41.052 101.624 41.1009 101.549 41.1254C101.051 41.3704 98.6855 42.5462 96.3447 44.3099C96.1455 44.4568 95.9712 44.6283 95.7969 44.8243C98.2622 46.8574 101.425 48.0822 104.886 48.0822C108.372 48.0577 111.56 46.8329 114 44.7998Z" fill="#FCFCFC"/>
<path d="M23.6555 82.8635C21.3147 81.0753 18.9739 79.924 18.451 79.6791C18.4012 79.6546 18.3514 79.5811 18.3514 79.5321C18.3514 79.3116 18.3514 78.7482 18.3514 78.1114C18.8494 77.45 19.1482 76.7151 19.2478 76.0537C19.472 76.0292 19.7957 75.7108 20.1194 74.5595C20.5676 72.9918 20.0945 72.7713 19.6961 72.7958C19.7708 72.5753 19.8206 72.3549 19.8704 72.1589C20.5676 68.0926 18.5257 67.9702 18.5257 67.9702C18.5257 67.9702 18.1771 67.3333 17.3055 66.8434C16.7078 66.5004 15.8861 66.231 14.7904 66.3289C14.4418 66.3534 14.0931 66.4024 13.7943 66.5249C13.3959 66.6474 13.0223 66.8434 12.6986 67.0883C12.3002 67.3333 11.9018 67.6517 11.5531 68.0192C11.0053 68.5581 10.5322 69.2684 10.3329 70.1258C10.1586 70.7872 10.2084 71.4485 10.3329 72.1834C10.3827 72.4039 10.4325 72.5998 10.5073 72.8203C10.1088 72.7713 9.61078 73.0163 10.0839 74.584C10.4076 75.7353 10.7314 76.0537 10.9555 76.0782C11.0551 76.7396 11.3788 77.499 11.852 78.1603V79.5566C11.852 79.6301 11.8271 79.6791 11.7523 79.7036C11.2543 79.9485 8.88863 81.1243 6.54784 82.888C6.34863 83.035 6.17431 83.2064 6 83.4024C8.46529 85.4355 11.6278 86.6603 15.0892 86.6603C18.5506 86.6603 21.7131 85.4355 24.1784 83.4024C24.029 83.1819 23.8547 83.0105 23.6555 82.8635Z" fill="#FCFCFC"/>
<path d="M23.6555 44.2854C21.3147 42.4972 18.9739 41.3459 18.451 41.1009C18.4012 41.0764 18.3514 41.003 18.3514 40.954C18.3514 40.7335 18.3514 40.1701 18.3514 39.5332C18.8494 38.8718 19.1482 38.137 19.2478 37.4756C19.472 37.4511 19.7957 37.1327 20.1194 35.9814C20.5676 34.4136 20.0945 34.1932 19.6961 34.2177C19.7708 33.9972 19.8206 33.7767 19.8704 33.5808C20.5676 29.5145 18.5257 29.392 18.5257 29.392C18.5257 29.392 18.1771 28.7551 17.3055 28.2652C16.7078 27.9223 15.8861 27.6528 14.7904 27.7508C14.4418 27.7753 14.0931 27.8243 13.7943 27.9468C13.3959 28.0693 13.0223 28.2652 12.6986 28.5102C12.3002 28.7551 11.9018 29.0736 11.5531 29.441C11.0053 29.9799 10.5322 30.6903 10.3329 31.5476C10.1586 32.209 10.2084 32.8704 10.3329 33.6053C10.3827 33.8257 10.4325 34.0217 10.5073 34.2422C10.1088 34.1932 9.61078 34.4381 10.0839 36.0059C10.4076 37.1571 10.7314 37.4756 10.9555 37.5001C11.0551 38.1615 11.3788 38.9208 11.852 39.5822V40.9785C11.852 41.052 11.8271 41.1009 11.7523 41.1254C11.2543 41.3704 8.88863 42.5462 6.54784 44.3099C6.34863 44.4568 6.17431 44.6283 6 44.8243C8.46529 46.8574 11.6278 48.0822 15.0892 48.0822C18.5506 48.0822 21.7131 46.8574 24.1784 44.8243C24.029 44.6038 23.8547 44.4324 23.6555 44.2854Z" fill="#FCFCFC"/>
<path d="M53.4625 56.0654C53.8858 57.5597 54.2842 57.9761 54.5831 58.0006C54.857 59.7643 56.2515 62.0179 58.5425 62.8262C59.4887 63.1447 60.5097 63.1447 61.4311 62.8262C63.6723 62.0179 65.1166 59.7888 65.3905 58.0006C65.6893 57.9761 66.0878 57.5597 66.5111 56.0654C67.1087 54.0323 66.4862 53.7139 65.9383 53.7628C66.038 53.4934 66.1127 53.1994 66.1625 52.93C67.0589 47.6389 64.4193 47.4675 64.4193 47.4675C64.4193 47.4675 63.9711 46.6346 62.8256 46.0222C62.0536 45.5813 60.9829 45.2139 59.5634 45.3364C59.1152 45.3608 58.667 45.4343 58.2685 45.5813C57.7456 45.7528 57.2725 45.9977 56.8242 46.2917C56.3013 46.6346 55.8033 47.0266 55.355 47.492C54.6578 48.2023 54.0352 49.1087 53.7613 50.2355C53.5372 51.0928 53.587 51.9747 53.7613 52.93C53.8111 53.1994 53.8858 53.4934 53.9854 53.7628C53.5123 53.7384 52.8897 54.0323 53.4625 56.0654Z" fill="#FCFCFC"/>
</g>
<defs>
<clipPath id="clip0_3240_26332">
<rect width="120" height="120" fill="white"/>
</clipPath>
</defs>
</svg>
