<svg width="113" height="120" viewBox="0 0 113 120" fill="none" xmlns="http://www.w3.org/2000/svg">
<path d="M101.267 8.00003V48.6243H105.667V8.00003H101.267ZM96.8668 11.1983L74.0357 19.818L96.8668 29.4667V11.1983ZM93.9335 53.0561V76.692H70.4668V100.328H47.0001V119.557C72.0068 119.606 88.0179 119.828 113 120V53.0561H93.9335Z" fill="#FCFCFC"/>
<path d="M39.2841 36.8504C37.7057 44.2859 32.0172 49.5 25.5005 49.5C18.9838 49.5 13.2953 44.2859 11.7169 36.8504L10.3417 30.443C9.68531 27.3035 6.9661 25.3941 4.27814 26.1836C1.59018 26.973 -0.0194676 30.1492 0.652522 33.307L2.01213 39.7145C3.73117 47.7926 8.29445 54.3285 14.2486 58.0004V114.125C14.2486 117.375 16.4833 120 19.2494 120C22.0155 120 24.2503 117.375 24.2503 114.125V90.625H26.7507V114.125C26.7507 117.375 28.9855 120 31.7516 120C34.5176 120 36.7524 117.375 36.7524 114.125V58.0004C42.7065 54.3285 47.2698 47.7926 48.9889 39.7145L50.3485 33.307C51.0205 30.1676 49.3952 26.973 46.7072 26.1836C44.0193 25.3941 41.3157 27.3035 40.6593 30.443L39.2997 36.8504H39.2841ZM25.5005 43.625C27.49 43.625 29.3979 42.6965 30.8047 41.0439C32.2115 39.3912 33.0018 37.1497 33.0018 34.8125C33.0018 32.4753 32.2115 30.2338 30.8047 28.5811C29.3979 26.9285 27.49 26 25.5005 26C23.511 26 21.6031 26.9285 20.1963 28.5811C18.7895 30.2338 17.9992 32.4753 17.9992 34.8125C17.9992 37.1497 18.7895 39.3912 20.1963 41.0439C21.6031 42.6965 23.511 43.625 25.5005 43.625Z" fill="#FCFCFC"/>
</svg>
