<svg width="120" height="120" viewBox="0 0 120 120" fill="none" xmlns="http://www.w3.org/2000/svg">
<g clip-path="url(#clip0_3240_26266)">
<path d="M54.1064 7.10997C56.0667 5.15221 58.6896 4.00023 61.4575 3.88131C64.2255 3.76239 66.9375 4.68517 69.0585 6.46758L69.7673 7.11551L80.2892 17.6318H95.1638C97.9571 17.6323 100.647 18.6883 102.695 20.5881C104.742 22.4879 105.997 25.0913 106.206 27.8768L106.239 28.7075V43.582L116.761 54.1039C118.721 56.0645 119.874 58.6885 119.992 61.4577C120.111 64.227 119.188 66.9401 117.404 69.0615L116.756 69.7648L106.234 80.2867V95.1612C106.235 97.9555 105.179 100.647 103.279 102.696C101.379 104.745 98.7753 106 95.9889 106.209L95.1638 106.237H80.2947L69.7729 116.759C67.8123 118.718 65.1883 119.871 62.419 119.99C59.6498 120.109 56.9366 119.185 54.8152 117.401L54.1119 116.759L43.5901 106.237H28.71C25.9157 106.238 23.2244 105.182 21.1755 103.282C19.1266 101.382 17.8716 98.7783 17.662 95.9919L17.6343 95.1612V80.2867L7.1125 69.7648C5.15319 67.8042 4.00023 65.1802 3.8813 62.411C3.76237 59.6417 4.68611 56.9285 6.47011 54.8072L7.1125 54.1039L17.6343 43.582V28.7075C17.6349 25.9142 18.6908 23.2242 20.5906 21.1765C22.4905 19.1288 25.0939 17.8745 27.8793 17.665L28.71 17.6318H43.5846L54.1064 7.10997ZM61.9369 14.9515L51.415 25.4734C49.5755 27.31 47.1486 28.4411 44.5592 28.6687L43.5846 28.7075H28.71V43.582C28.7106 46.1842 27.7951 48.7035 26.1238 50.6981L25.4648 51.418L14.943 61.9399L25.4648 72.4562C27.3035 74.2949 28.4366 76.7218 28.6657 79.312L28.71 80.2867V95.1612H43.5846C46.1867 95.1606 48.7061 96.0762 50.7006 97.7474L51.4206 98.4064L61.9369 108.928L72.4587 98.4064C74.2974 96.5677 76.7244 95.4346 79.3145 95.2055L80.2892 95.1612H95.1638V80.2867C95.1631 77.6845 96.0787 75.1651 97.7499 73.1706L98.4089 72.4507L108.931 61.9343L98.4089 51.4125C96.5703 49.5738 95.4371 47.1468 95.2081 44.5567L95.1638 43.582V28.7075H80.2892C77.687 28.7081 75.1677 27.7925 73.1731 26.1213L72.4532 25.4623L61.9313 14.9404L61.9369 14.9515ZM78.9933 45.2323C79.9899 44.2391 81.3272 43.6625 82.7335 43.6195C84.1398 43.5766 85.5098 44.0705 86.5651 45.0011C87.6204 45.9316 88.282 47.229 88.4154 48.6296C88.5488 50.0302 88.1441 51.4292 87.2835 52.5422L86.8183 53.0628L59.7937 80.0873C58.7386 81.1438 57.3323 81.7759 55.8417 81.8637C54.3512 81.9515 52.8804 81.4888 51.7085 80.5636L51.1769 80.0928L37.864 66.7799C36.8602 65.7857 36.2745 64.4454 36.2266 63.0333C36.1786 61.6213 36.6722 60.2444 37.6063 59.1844C38.5403 58.1244 39.8442 57.4614 41.251 57.3313C42.6579 57.2011 44.0612 57.6136 45.1739 58.4843L45.6945 58.9439L55.4853 68.7348L78.9933 45.2323Z" fill="white"/>
</g>
<defs>
<clipPath id="clip0_3240_26266">
<rect width="120" height="120" fill="white"/>
</clipPath>
</defs>
</svg>
