<svg width="32" height="32" viewBox="0 0 32 32" fill="none" xmlns="http://www.w3.org/2000/svg">
<g clip-path="url(#clip0_3371_20661)">
<path d="M7.33333 9.33333C4.76 9.33333 2.66667 7.24 2.66667 4.66667C2.66667 2.09333 4.76 0 7.33333 0C9.90667 0 12 2.09333 12 4.66667C12 7.24 9.90667 9.33333 7.33333 9.33333ZM19.3333 9.33333C16.76 9.33333 14.6667 7.24 14.6667 4.66667C14.6667 2.09333 16.76 0 19.3333 0C21.9067 0 24 2.09333 24 4.66667C24 7.24 21.9067 9.33333 19.3333 9.33333ZM29.3333 22.6667C29.3333 21.932 29.1853 21.2387 28.9653 20.5773L31.42 19.164L30.0893 16.8533L27.636 18.2667C26.6947 17.2053 25.4413 16.4293 24.0013 16.136V13.3347H21.3347V16.136C19.8947 16.4293 18.64 17.2053 17.7 18.2667L15.2467 16.8533L13.916 19.164L16.3707 20.5773C16.1507 21.2387 16.0027 21.932 16.0027 22.6667C16.0027 23.4013 16.1507 24.0947 16.3707 24.756L13.916 26.1693L15.2467 28.48L17.7 27.0667C18.6413 28.128 19.8947 28.904 21.3347 29.1973V31.9987H24.0013V29.1973C25.4413 28.904 26.696 28.128 27.636 27.0667L30.0893 28.48L31.42 26.1693L28.9653 24.756C29.1853 24.0947 29.3333 23.4013 29.3333 22.6667ZM22.6667 24.6667C21.564 24.6667 20.6667 23.7693 20.6667 22.6667C20.6667 21.564 21.564 20.6667 22.6667 20.6667C23.7693 20.6667 24.6667 21.564 24.6667 22.6667C24.6667 23.7693 23.7693 24.6667 22.6667 24.6667ZM11.124 19.416C11.3707 18.5413 11.7027 17.7027 12.1307 16.9213C12.7253 15.7613 13.4533 14.824 14.6013 13.8C15.2667 13.1947 15.9947 12.66 16.7827 12.2147C15.9293 11.2693 14.704 10.6667 13.3333 10.6667C10.76 10.6667 8.66667 12.76 8.66667 15.3333C8.66667 17.104 9.66533 18.632 11.124 19.416ZM6 15.3333C6 13.5627 6.632 11.936 7.68133 10.6667H4C1.79467 10.6667 0 12.4613 0 14.6667V18.6667H6.828C6.30267 17.6507 6 16.5173 6 15.3333ZM10.2733 25.1907L13.3667 23.408C13.344 23.16 13.3333 22.9133 13.3333 22.6667C13.3333 22.42 13.344 22.1733 13.3667 21.9253L12.3387 21.3333H9.33333C7.128 21.3333 5.33333 23.128 5.33333 25.3333V29.3333H12.6587L10.2733 25.1907Z" fill="url(#paint0_linear_3371_20661)"/>
</g>
<defs>
<linearGradient id="paint0_linear_3371_20661" x1="0" y1="0" x2="39.2974" y2="1.93773" gradientUnits="userSpaceOnUse">
<stop stop-color="#E37CC1"/>
<stop offset="0.365" stop-color="#E231A8"/>
<stop offset="0.76" stop-color="#9D2F79"/>
<stop offset="1" stop-color="#851A62"/>
</linearGradient>
<clipPath id="clip0_3371_20661">
<rect width="32" height="32" fill="white"/>
</clipPath>
</defs>
</svg>
