<svg width="32" height="32" viewBox="0 0 32 32" fill="none" xmlns="http://www.w3.org/2000/svg">
<g clip-path="url(#clip0_3371_20678)">
<path d="M6.66667 26.6667H10.5173C9.72267 27.3613 9.13067 28.2787 8.856 29.3333H6.66667C4.45733 29.3333 2.66667 27.5427 2.66667 25.3333V22.6667H5.33333V25.3333C5.33333 26.0693 5.93067 26.6667 6.66667 26.6667ZM6.66667 2.66667C4.45733 2.66667 2.66667 4.45733 2.66667 6.66667V8.396C3.28533 8.14533 3.95867 8 4.66667 8C4.89467 8 5.11333 8.03867 5.33333 8.06667V6.66667C5.33333 5.93067 5.93067 5.33333 6.66667 5.33333H10.552C10.744 5.16533 10.9253 4.984 11.1427 4.84533C10.8427 4.17867 10.6667 3.444 10.6667 2.66667H6.66667ZM26.6667 6.66667V8.06667C26.8867 8.03733 27.1053 8 27.3333 8C28.0413 8 28.7147 8.14533 29.3333 8.396V6.66667C29.3333 4.45733 27.5427 2.66667 25.3333 2.66667H21.3333C21.3333 3.444 21.1573 4.17867 20.8573 4.84533C21.0747 4.984 21.2547 5.16533 21.448 5.33333H25.3333C26.0693 5.33333 26.6667 5.93067 26.6667 6.66667ZM26.6667 25.3333C26.6667 26.0693 26.0693 26.6667 25.3333 26.6667H21.4827C22.2773 27.3613 22.8693 28.2787 23.144 29.3333H25.3333C27.5427 29.3333 29.3333 27.5427 29.3333 25.3333V22.6667H26.6667V25.3333ZM16 5.33333C17.4733 5.33333 18.6667 4.14 18.6667 2.66667C18.6667 1.19333 17.4733 0 16 0C14.5267 0 13.3333 1.19333 13.3333 2.66667C13.3333 4.14 14.5267 5.33333 16 5.33333ZM18 6.66667H14C12.5293 6.66667 11.3333 7.86267 11.3333 9.33333V10.6667H14V9.33333H18V10.6667H20.6667V9.33333C20.6667 7.86267 19.4707 6.66667 18 6.66667ZM16 26.6667C17.4733 26.6667 18.6667 25.4733 18.6667 24C18.6667 22.5267 17.4733 21.3333 16 21.3333C14.5267 21.3333 13.3333 22.5267 13.3333 24C13.3333 25.4733 14.5267 26.6667 16 26.6667ZM18 28H14C12.5293 28 11.3333 29.196 11.3333 30.6667V32H14V30.6667H18V32H20.6667V30.6667C20.6667 29.196 19.4707 28 18 28ZM29.3333 17.3333H25.3333C23.8627 17.3333 22.6667 18.5293 22.6667 20V21.3333H25.3333V20H29.3333V21.3333H32V20C32 18.5293 30.804 17.3333 29.3333 17.3333ZM2.66667 20H6.66667V21.3333H9.33333V20C9.33333 18.5293 8.13733 17.3333 6.66667 17.3333H2.66667C1.196 17.3333 0 18.5293 0 20V21.3333H2.66667V20ZM27.3333 10.6667C25.86 10.6667 24.6667 11.86 24.6667 13.3333C24.6667 14.8067 25.86 16 27.3333 16C28.8067 16 30 14.8067 30 13.3333C30 11.86 28.8067 10.6667 27.3333 10.6667ZM4.66667 16C6.14 16 7.33333 14.8067 7.33333 13.3333C7.33333 11.86 6.14 10.6667 4.66667 10.6667C3.19333 10.6667 2 11.86 2 13.3333C2 14.8067 3.19333 16 4.66667 16Z" fill="url(#paint0_linear_3371_20678)"/>
</g>
<defs>
<linearGradient id="paint0_linear_3371_20678" x1="0" y1="0" x2="40.0192" y2="2.00966" gradientUnits="userSpaceOnUse">
<stop stop-color="#E37CC1"/>
<stop offset="0.365" stop-color="#E231A8"/>
<stop offset="0.76" stop-color="#9D2F79"/>
<stop offset="1" stop-color="#851A62"/>
</linearGradient>
<clipPath id="clip0_3371_20678">
<rect width="32" height="32" fill="white"/>
</clipPath>
</defs>
</svg>
