<svg width="33" height="32" viewBox="0 0 33 32" fill="none" xmlns="http://www.w3.org/2000/svg">
<g clip-path="url(#clip0_3371_20644)">
<path d="M17.2958 14.4227L13.6172 18.0253C13.1905 18.452 12.6252 18.6667 12.0598 18.6667C11.4905 18.6667 10.9198 18.4507 10.4852 18.016L8.55184 16.1587L10.3998 14.236L12.0545 15.8253L15.4318 12.5187L17.2972 14.424L17.2958 14.4227ZM15.1665 25.3333H23.1665V22.6667H15.1665V25.3333ZM9.83317 25.3333H12.4998V22.6667H9.83317V25.3333ZM15.1665 9.33333H23.1665V6.66667H15.1665V9.33333ZM12.4998 6.66667H9.83317V9.33333H12.4998V6.66667ZM29.8332 4V32H3.1665V4C3.1665 1.79467 4.96117 0 7.1665 0H25.8332C28.0385 0 29.8332 1.79467 29.8332 4ZM27.1665 4C27.1665 3.26533 26.5678 2.66667 25.8332 2.66667H7.1665C6.43184 2.66667 5.83317 3.26533 5.83317 4V29.3333H27.1665V4ZM17.8332 17.3333H23.1665V14.6667H20.5558L17.8332 17.3333Z" fill="url(#paint0_linear_3371_20644)"/>
</g>
<defs>
<linearGradient id="paint0_linear_3371_20644" x1="3.1665" y1="0" x2="36.5415" y2="1.39667" gradientUnits="userSpaceOnUse">
<stop stop-color="#E37CC1"/>
<stop offset="0.365" stop-color="#E231A8"/>
<stop offset="0.76" stop-color="#9D2F79"/>
<stop offset="1" stop-color="#851A62"/>
</linearGradient>
<clipPath id="clip0_3371_20644">
<rect width="32" height="32" fill="white" transform="translate(0.5)"/>
</clipPath>
</defs>
</svg>
