<svg width="180" height="164" viewBox="0 0 180 164" fill="none" xmlns="http://www.w3.org/2000/svg">
    <path
        d="M35.4825 161.609C20.37 150.103 9.28497 134.112 3.81415 115.923C-1.65668 97.7341 -1.23279 78.2808 5.02512 60.3475C11.283 42.4143 23.0541 26.9206 38.6534 16.0843C54.2527 5.24805 72.8804 -0.37523 91.8701 0.0194306C110.86 0.414091 129.238 6.80646 144.373 18.2815C159.509 29.7565 170.626 45.7259 176.134 63.9037C181.641 82.0814 181.256 101.536 175.034 119.481C168.813 137.427 157.073 152.945 141.495 163.812L132.557 151.001C145.431 142.019 155.133 129.195 160.275 114.364C165.417 99.5334 165.735 83.4558 161.184 68.4331C156.632 53.4104 147.444 40.2128 134.936 30.7295C122.427 21.2461 107.239 15.9633 91.5455 15.6371C75.8518 15.311 60.4573 19.9582 47.5655 28.9137C34.6737 37.8691 24.9457 50.6736 19.774 65.4942C14.6022 80.3149 14.2519 96.3918 18.7732 111.424C23.2945 126.455 32.4555 139.671 44.9449 149.18L35.4825 161.609Z"
        fill="url(#paint0_linear_3240_26265)" />
    <defs>
        <linearGradient id="paint0_linear_3240_26265" x1="90" y1="0" x2="90" y2="147" gradientUnits="userSpaceOnUse">
            <stop stop-color="#E231A8" />
            <stop offset="0.159288" stop-color="#9F337E" />
            <stop offset="0.410772" stop-color="#882974" />
            <stop offset="0.658558" stop-color="#712C7C" />
            <stop offset="0.873059" stop-color="#592463" />
            <stop offset="1" stop-color="rgb(67, 4, 78)" />
        </linearGradient>
    </defs>
</svg>