<svg width="40" height="38" viewBox="0 0 40 38" fill="none" xmlns="http://www.w3.org/2000/svg">
<g clip-path="url(#clip0_3371_19606)">
<path d="M40 29.6852H0V0H40V29.6852ZM2.34375 27.3195H37.6562V2.36573H2.34375V27.3195Z" fill="#FCFCFC"/>
<path d="M14.6142 37.5877L12.8345 36.0476C14.5532 34.0217 14.5532 31.2988 12.8345 29.2729L14.6142 27.7336C17.0774 30.634 17.0774 34.6865 14.6142 37.5877ZM25.386 37.5877C22.9228 34.6865 22.9228 30.634 25.386 27.7305L27.1657 29.2698C25.447 31.2956 25.447 34.0186 27.1657 36.0444L25.386 37.5877Z" fill="#FCFCFC"/>
<path d="M30.5912 35.6328H9.40918V37.9985H30.5912V35.6328Z" fill="#FCFCFC"/>
<path d="M23.5258 20.1817H4.70703V4.75H23.5258V20.1817ZM7.05078 17.816H21.182V7.11573H7.05078V17.816Z" fill="#FCFCFC"/>
<path d="M35.2982 22.5664H4.70215V24.9321H35.2982V22.5664Z" fill="#FCFCFC"/>
<path d="M14.3179 19.6578L10.5858 14.0068L6.85381 19.6578L4.90381 18.3456L10.5858 9.74219L16.2679 18.3456L14.3179 19.6578Z" fill="#FCFCFC"/>
<path d="M21.4289 19.7257L16.6086 13.4786L14.3586 16.7891L12.4258 15.4509L16.4883 9.47266L23.2781 18.2716L21.4289 19.7257Z" fill="#FCFCFC"/>
<path d="M35.2926 15.4305H25.8887V4.75H35.2926V15.4305ZM28.2324 13.0648H32.9488V7.11573H28.2324V13.0648Z" fill="#FCFCFC"/>
<path d="M35.2979 17.8164H25.8838V20.1821H35.2979V17.8164Z" fill="#FCFCFC"/>
</g>
<defs>
<clipPath id="clip0_3371_19606">
<rect width="40" height="38" fill="white"/>
</clipPath>
</defs>
</svg>
