<svg width="121" height="120" viewBox="0 0 121 120" fill="none" xmlns="http://www.w3.org/2000/svg">
<g clip-path="url(#clip0_3240_26295)">
<path d="M17.8802 49.7273C21.6429 49.7273 24.6931 46.6771 24.6931 42.9144C24.6931 39.1518 21.6429 36.1016 17.8802 36.1016C14.1176 36.1016 11.0674 39.1518 11.0674 42.9144C11.0674 46.6771 14.1176 49.7273 17.8802 49.7273Z" fill="#FCFCFC"/>
<path d="M25.4879 52.4531H10.275C4.90306 52.4588 0.550449 56.8114 0.542949 62.1833V81.2653C0.497949 83.2195 2.04577 84.8405 4.00001 84.8853C5.95424 84.9303 7.57519 83.3824 7.61996 81.4282C7.62183 81.3738 7.62183 81.3194 7.61996 81.2651V64.1523H9.74482V116.381C9.69982 118.335 11.2476 119.956 13.2019 120.001C15.1561 120.046 16.7771 118.498 16.8218 116.543C16.8237 116.489 16.8237 116.435 16.8218 116.38V87.3607H18.9429V116.381C18.8979 118.335 20.4458 119.956 22.4 120.001C24.3542 120.046 25.9752 118.498 26.0199 116.544C26.0218 116.49 26.0218 116.435 26.0199 116.381V64.149H28.1448V81.2618C28.0998 83.216 29.6476 84.837 31.6019 84.8817C33.5561 84.9267 35.177 83.3789 35.2218 81.4247C35.2237 81.3703 35.2237 81.3159 35.2218 81.2616V62.1833C35.2162 56.8114 30.8617 52.4588 25.4879 52.4531Z" fill="#FCFCFC"/>
<path d="M103.12 49.7273C106.883 49.7273 109.933 46.6771 109.933 42.9144C109.933 39.1518 106.883 36.1016 103.12 36.1016C99.3578 36.1016 96.3076 39.1518 96.3076 42.9144C96.3076 46.6771 99.3578 49.7273 103.12 49.7273Z" fill="#FCFCFC"/>
<path d="M110.718 52.4531H95.5035C90.1316 52.4588 85.7771 56.8132 85.7715 62.1852V81.2653C85.7265 83.2195 87.2743 84.8405 89.2285 84.8853C91.1828 84.9303 92.8037 83.3824 92.8485 81.4282C92.8503 81.3738 92.8503 81.3194 92.8485 81.2651V64.1523H94.979V116.381C94.934 118.335 96.4818 119.956 98.436 120.001C100.39 120.046 102.011 118.498 102.056 116.543C102.058 116.489 102.058 116.435 102.056 116.38V87.3607H104.177V116.381C104.132 118.335 105.68 119.956 107.634 120.001C109.588 120.046 111.209 118.498 111.254 116.544C111.256 116.49 111.256 116.435 111.254 116.381V64.149H113.379V81.2618C113.334 83.216 114.882 84.837 116.836 84.8817C118.79 84.9267 120.411 83.3789 120.456 81.4247C120.458 81.3703 120.458 81.3159 120.456 81.2616V62.1833C120.45 56.8095 116.092 52.4569 110.718 52.4531Z" fill="#FCFCFC"/>
<path d="M66.8284 50.4519H54.1508C53.3525 50.4519 52.7061 49.8036 52.7061 49.0072C52.7061 48.2108 53.3525 47.5644 54.1508 47.5625H66.8284C67.6267 47.5625 68.2731 48.2108 68.2731 49.0072C68.2729 49.8055 67.6265 50.4519 66.8284 50.4519Z" fill="black"/>
<path d="M66.8284 54.6003H54.1508C53.3525 54.6003 52.7061 53.952 52.7061 53.1556C52.7061 52.3592 53.3525 51.7128 54.1508 51.7109H66.8284C67.6267 51.7109 68.2731 52.3592 68.2731 53.1556C68.2729 53.9539 67.6265 54.6003 66.8284 54.6003Z" fill="black"/>
<path d="M53.4863 56.3359C54.9592 58.7587 57.6629 60.1565 60.4902 59.9578C63.3177 60.1563 66.0215 58.7587 67.4941 56.3359H53.4863Z" fill="#FCFCFC"/>
<path d="M60.4915 11.9844C48.1061 11.9956 41.8873 24.6002 47.5815 33.1313C52.9872 41.2294 52.5393 45.8202 52.5393 45.8202H68.4472C68.4472 45.8202 67.9974 41.2238 73.4012 33.1313C79.0958 24.5983 72.8694 11.9938 60.4915 11.9844Z" fill="#FCFCFC"/>
<path d="M60.5019 11.9805H60.4971V11.9853H60.5019V11.9805Z" fill="#FCFCFC"/>
<path d="M60.5033 9.62726C59.705 9.62726 59.0586 8.98085 59.0586 8.18256V1.4447C59.0586 0.648286 59.705 0 60.5033 0C61.3016 0 61.948 0.646411 61.948 1.4447V1.44657V8.19194C61.9442 8.98648 61.2997 9.62726 60.5033 9.62726Z" fill="#FCFCFC"/>
<path d="M41.2487 31.7683H34.5033C33.705 31.7683 33.0586 31.1219 33.0586 30.3236C33.0586 29.5253 33.705 28.8789 34.5033 28.8789H34.5052H41.2505C42.0488 28.8789 42.6952 29.5253 42.6952 30.3236C42.695 31.1219 42.0486 31.7683 41.2487 31.7683C41.2505 31.7683 41.2505 31.7683 41.2487 31.7683Z" fill="#FCFCFC"/>
<path d="M86.4957 31.7683H79.7504C78.9521 31.7683 78.3057 31.1219 78.3057 30.3236C78.3057 29.5253 78.9521 28.8789 79.7504 28.8789H79.7522H86.4976C87.2959 28.8789 87.9423 29.5253 87.9423 30.3236C87.9423 31.1219 87.2957 31.7683 86.4957 31.7683C86.4976 31.7683 86.4976 31.7683 86.4957 31.7683Z" fill="#FCFCFC"/>
<path d="M44.8463 16.1146C44.4622 16.1146 44.0949 15.9628 43.8251 15.6911L39.0602 10.9244C38.5113 10.3454 38.5338 9.43091 39.1127 8.882C39.671 8.35183 40.5443 8.35183 41.1026 8.882L45.8675 13.6469C46.4333 14.2108 46.4333 15.1253 45.8712 15.6892C45.5996 15.9628 45.2323 16.1165 44.8463 16.1146Z" fill="#FCFCFC"/>
<path d="M76.1595 16.1159C75.3613 16.1159 74.7148 15.4676 74.7148 14.6712C74.7148 14.2889 74.8667 13.9216 75.1384 13.65L79.9032 8.88324C80.4522 8.30433 81.3667 8.28183 81.9456 8.83074C82.5245 9.37965 82.547 10.2942 81.9981 10.8731C81.9812 10.8919 81.9643 10.9087 81.9456 10.9256L77.1788 15.6905C76.911 15.9621 76.5437 16.1159 76.1595 16.1159Z" fill="#FCFCFC"/>
</g>
<defs>
<clipPath id="clip0_3240_26295">
<rect width="120" height="120" fill="white" transform="translate(0.5)"/>
</clipPath>
</defs>
</svg>
